<svg xmlns:dc="http://purl.org/dc/elements/1.1/" xmlns:cc="http://creativecommons.org/ns#" xmlns:rdf="http://www.w3.org/1999/02/22-rdf-syntax-ns#" xmlns:svg="http://www.w3.org/2000/svg" xmlns="http://www.w3.org/2000/svg" xmlns:xlink="http://www.w3.org/1999/xlink" id="svg189140" viewBox="0 0 1024 768" height="768px" width="1024px" version="1.1">
  <metadata id="metadata189146">
    <rdf:rdf>
      <cc:work rdf:about="">
        <dc:format>image/svg+xml</dc:format>
        <dc:type rdf:resource="http://purl.org/dc/dcmitype/StillImage"></dc:type>
      </cc:work>
    </rdf:rdf>
  </metadata>
  <defs id="defs189144"></defs>
  <linearGradient spreadMethod="pad" y2="30%" x2="-10%" y1="120%" x1="30%" id="3d_gradient2-logo-0752b1cf-a4f2-47d6-b618-346aad684887">
    <stop id="stop189121" stop-opacity="1" stop-color="#ffffff" offset="0%"></stop>
    <stop id="stop189123" stop-opacity="1" stop-color="#000000" offset="100%"></stop>
  </linearGradient>
  <linearGradient gradientTransform="rotate(-30)" spreadMethod="pad" y2="30%" x2="-10%" y1="120%" x1="30%" id="3d_gradient3-logo-0752b1cf-a4f2-47d6-b618-346aad684887">
    <stop id="stop189126" stop-opacity="1" stop-color="#ffffff" offset="0%"></stop>
    <stop id="stop189128" stop-opacity="1" stop-color="#cccccc" offset="50%"></stop>
    <stop id="stop189130" stop-opacity="1" stop-color="#000000" offset="100%"></stop>
  </linearGradient>
  <g id="logo-group">
    <image xlink:href="" id="container" x="272" y="144" width="480" height="480" transform="translate(0 0)" style="display: none;"></image>
    <g id="logo-center" transform="translate(0 0)">
      <image xlink:href="" id="icon_container" x="0" y="0" style="display: none;"></image>
      <g id="slogan" style="font-style:normal;font-weight:400;font-size:32px;line-height:1;font-family:Montserrat;font-variant-ligatures:none;text-align:center;text-anchor:middle" transform="translate(0 0)"></g>
      <g id="title" style="font-style:normal;font-weight:300;font-size:72px;line-height:1;font-family:'Montserrat Light Alt1';font-variant-ligatures:none;text-align:center;text-anchor:middle" transform="translate(0 0)">
        <path id="path189149" style="font-style:normal;font-weight:300;font-size:72px;line-height:1;font-family:'Montserrat Light Alt1';font-variant-ligatures:none;text-align:center;text-anchor:middle" d="m 365.9885,-50.4 h -3.6 l -15.48,45.432 -15.696,-45.432 h -3.528 l -15.768,45.36 -15.336,-45.36 h -3.888 L 309.8285,0 h 3.888 L 329.4125,-45.216 345.0365,0 h 3.888 z" stroke-width="0" stroke-linejoin="miter" stroke-miterlimit="2" fill="#2c3d4f" stroke="#2c3d4f" transform="translate(0 314.74) translate(214.64625 37.76) scale(1.25) translate(-292.6925 50.4)"></path>
        <path id="path189151" style="font-style:normal;font-weight:300;font-size:72px;line-height:1;font-family:'Montserrat Light Alt1';font-variant-ligatures:none;text-align:center;text-anchor:middle" d="m 384.07287,-2.952 c 3.96,2.232 8.424,3.312 13.392,3.312 4.89601,0 9.36001,-1.08 13.392,-3.312 3.96,-2.16 7.056,-5.256 9.36001,-9.144 2.30399,-3.888 3.45599,-8.208 3.45599,-13.104 0,-4.824 -1.152,-9.216 -3.45599,-13.104 -2.30401,-3.888 -5.40001,-6.912 -9.36001,-9.144 -4.03199,-2.16 -8.49599,-3.312 -13.392,-3.312 -4.968,0 -9.432,1.152 -13.392,3.384 -4.03199,2.232 -7.12799,5.256 -9.432,9.144 -2.30399,3.888 -3.384,8.28 -3.384,13.032 0,4.824 1.08001,9.144 3.384,13.032 2.30401,3.888 5.40001,6.984 9.432,9.216 z m 24.84,-2.952 c -3.45599,1.944 -7.272,2.88 -11.448,2.88 -4.24799,0 -8.064,-0.936 -11.51999,-2.88 -3.45601,-1.872 -6.12,-4.536 -8.06401,-7.92 -2.016,-3.384 -2.952,-7.2 -2.952,-11.376 0,-4.176 0.936,-7.92 2.952,-11.304 1.94401,-3.384 4.608,-6.048 8.06401,-7.992 3.45599,-1.872 7.272,-2.88 11.51999,-2.88 4.176,0 7.99201,1.008 11.448,2.88 3.384,1.944 6.048,4.608 8.064,7.992 1.94401,3.384 2.952,7.128 2.952,11.304 0,4.176 -1.00799,7.992 -2.952,11.376 -2.016,3.384 -4.68,6.048 -8.064,7.92 z" stroke-width="0" stroke-linejoin="miter" stroke-miterlimit="2" fill="#2c3d4f" stroke="#2c3d4f" transform="translate(0 314.74) translate(319.1017125 37.31) scale(1.25) translate(-371.25687 50.76)"></path>
        <path id="path189153" style="font-style:normal;font-weight:300;font-size:72px;line-height:1;font-family:'Montserrat Light Alt1';font-variant-ligatures:none;text-align:center;text-anchor:middle" d="m 462.977,-17.64 c 3.744,-1.08 6.696,-2.952 8.712,-5.688 2.016,-2.736 3.096,-6.048 3.096,-10.08 0,-5.256 -1.8,-9.432 -5.4,-12.456 -3.6,-3.024 -8.568,-4.536 -14.904,-4.536 h -18.072 v 3.312 h 18.072 c 5.328,0 9.432,1.224 12.312,3.6 2.808,2.376 4.248,5.76 4.248,10.08 0,4.392 -1.44,7.776 -4.248,10.152 -2.88,2.376 -6.984,3.528 -12.312,3.528 H 436.409 V 0 h 3.672 v -16.488 h 14.4 c 1.44,0 3.096,-0.072 4.896,-0.36 L 471.401,0 h 4.176 z" stroke-width="0" stroke-linejoin="miter" stroke-miterlimit="2" fill="#2c3d4f" stroke="#2c3d4f" transform="translate(0 314.74) translate(406.791875 37.76) scale(1.25) translate(-436.409 50.4)"></path>
        <path id="path189155" style="font-style:normal;font-weight:300;font-size:72px;line-height:1;font-family:'Montserrat Light Alt1';font-variant-ligatures:none;text-align:center;text-anchor:middle" d="M 503.27562,-24.84 524.94763,0 h 4.46399 l -23.688,-27.504 22.17601,-22.896 h -4.46401 L 491.97163,-18 v -32.4 h -3.67201 V 0 h 3.67201 v -13.248 z" stroke-width="0" stroke-linejoin="miter" stroke-miterlimit="2" fill="#2c3d4f" stroke="#2c3d4f" transform="translate(0 314.74) translate(477.90515 37.76) scale(1.25) translate(-488.29962 50.4)"></path>
        <path id="path189157" style="font-style:normal;font-weight:300;font-size:72px;line-height:1;font-family:'Montserrat Light Alt1';font-variant-ligatures:none;text-align:center;text-anchor:middle" d="m 577.08462,-21.744 c -1.872,-2.16 -4.60799,-3.528 -8.208,-4.248 2.52,-0.792 4.60801,-2.232 6.12,-4.248 1.51201,-1.944 2.304,-4.32 2.304,-7.272 0,-4.104 -1.58399,-7.272 -4.60799,-9.504 -3.024,-2.232 -7.27201,-3.384 -12.74401,-3.384 h -21.024 v 3.168 h 20.88 c 4.39201,0 7.77601,0.864 10.15201,2.592 2.37599,1.728 3.59999,4.176 3.59999,7.416 0,3.312 -1.224,5.832 -3.59999,7.56 -2.376,1.728 -5.76,2.52 -10.15201,2.52 h -20.88 v 3.168 h 22.46401 c 4.82399,0 8.568,0.864 11.088,2.52 2.51999,1.728 3.816,4.32 3.816,7.848 0,3.6 -1.29601,6.192 -3.816,7.92 -2.52,1.728 -6.19201,2.52 -11.088,2.52 H 538.92462 V 0 h 22.46401 c 6.12,0 10.72799,-1.152 13.89599,-3.456 3.096,-2.304 4.68,-5.544 4.68,-9.864 0,-3.384 -1.00799,-6.192 -2.88,-8.424 z" stroke-width="0" stroke-linejoin="miter" stroke-miterlimit="2" fill="#2c3d4f" stroke="#2c3d4f" transform="translate(0 314.74) translate(547.4364 37.76) scale(1.25) translate(-538.92462 50.4)"></path>
        <path id="path189159" style="font-style:normal;font-weight:300;font-size:72px;line-height:1;font-family:'Montserrat Light Alt1';font-variant-ligatures:none;text-align:center;text-anchor:middle" d="m 597.88925,-5.184 c 3.528,3.744 8.496,5.544 14.904,5.544 6.336,0 11.304,-1.8 14.904,-5.544 3.528,-3.672 5.328,-9.072 5.328,-16.2 V -50.4 h -3.672 v 28.872 c 0,6.192 -1.44,10.872 -4.248,13.896 -2.88,3.096 -6.912,4.608 -12.24,4.608 -5.4,0 -9.504,-1.512 -12.312,-4.608 -2.88,-3.024 -4.248,-7.704 -4.248,-13.896 V -50.4 h -3.672 v 29.016 c 0,7.128 1.728,12.528 5.256,16.2 z" stroke-width="0" stroke-linejoin="miter" stroke-miterlimit="2" fill="#2c3d4f" stroke="#2c3d4f" transform="translate(0 314.74) translate(620.8221875 37.76) scale(1.25) translate(-592.63325 50.4)"></path>
        <path id="path189161" style="font-style:normal;font-weight:300;font-size:72px;line-height:1;font-family:'Montserrat Light Alt1';font-variant-ligatures:none;text-align:center;text-anchor:middle" d="M 650.159,-50.4 V 0 h 32.688 V -3.312 H 653.831 V -50.4 Z" stroke-width="0" stroke-linejoin="miter" stroke-miterlimit="2" fill="#2c3d4f" stroke="#2c3d4f" transform="translate(0 314.74) translate(698.979375 37.76) scale(1.25) translate(-650.159 50.4)"></path>
        <path id="path189163" style="font-style:normal;font-weight:300;font-size:72px;line-height:1;font-family:'Montserrat Light Alt1';font-variant-ligatures:none;text-align:center;text-anchor:middle" d="M 707.3225,-24.84 728.9945,0 h 4.464 l -23.688,-27.504 22.176,-22.896 h -4.464 l -31.464,32.4 v -32.4 h -3.672 V 0 h 3.672 v -13.248 z" stroke-width="0" stroke-linejoin="miter" stroke-miterlimit="2" fill="#2c3d4f" stroke="#2c3d4f" transform="translate(0 314.74) translate(757.96375 37.76) scale(1.25) translate(-692.3465 50.4)"></path>
      </g>
      <image xlink:href="" id="icon" x="0" y="0" style="display: none;"></image>
    </g>
  </g>
</svg>